<?xml version="1.0" standalone="no"?>
<!DOCTYPE svg PUBLIC "-//W3C//DTD SVG 20010904//EN"
 "http://www.w3.org/TR/2001/REC-SVG-20010904/DTD/svg10.dtd">
<svg version="1.0" xmlns="http://www.w3.org/2000/svg"
 width="571.000000pt" height="659.000000pt" viewBox="0 0 571.000000 659.000000"
 preserveAspectRatio="xMidYMid meet">

<g transform="translate(0.000000,659.000000) scale(0.100000,-0.100000)"
fill="#000000" stroke="none">
<path d="M490 5607 l0 -374 88 -18 c351 -72 654 -244 823 -467 74 -99 151
-255 179 -363 49 -191 49 -422 0 -610 -45 -174 -175 -380 -313 -496 -198 -166
-405 -261 -749 -343 l-28 -6 0 -376 0 -377 83 7 c759 63 1294 420 1617 1081
194 396 251 789 170 1174 -79 373 -315 788 -603 1056 -225 210 -482 348 -789
424 -121 31 -337 61 -430 61 l-48 0 0 -373z"/>
<path d="M480 871 l0 -381 876 0 877 0 -6 73 c-22 261 -198 508 -439 616 -145
65 -138 65 -750 69 l-558 3 0 -380z"/>
</g>
</svg>
