<?xml version="1.0" standalone="no"?>
<!DOCTYPE svg PUBLIC "-//W3C//DTD SVG 20010904//EN"
 "http://www.w3.org/TR/2001/REC-SVG-20010904/DTD/svg10.dtd">
<svg version="1.0" xmlns="http://www.w3.org/2000/svg"
 width="571.000000pt" height="659.000000pt" viewBox="0 0 571.000000 659.000000"
 preserveAspectRatio="xMidYMid meet">

<g transform="translate(0.000000,659.000000) scale(0.100000,-0.100000)"
fill="#000000" stroke="none">
<path d="M4955 5284 c-567 -77 -1013 -363 -1327 -854 -152 -237 -243 -462
-295 -725 -24 -125 -24 -442 0 -573 78 -416 289 -819 576 -1102 315 -310 699
-472 1244 -525 l57 -5 0 379 0 379 -37 6 c-144 25 -404 121 -530 194 -224 131
-358 273 -459 486 -72 153 -89 238 -89 461 0 167 3 201 24 279 64 246 200 447
406 601 136 102 390 209 598 251 l87 19 0 372 0 373 -77 -1 c-43 -1 -123 -7
-178 -15z"/>
<path d="M1635 2244 c-485 -50 -839 -191 -1010 -401 -85 -103 -145 -260 -145
-375 l0 -49 483 4 c422 3 495 6 582 22 142 27 558 28 724 2 393 -63 750 -199
1151 -437 236 -141 502 -264 745 -345 307 -103 590 -155 923 -171 l142 -7 0
389 0 389 -128 2 c-280 5 -589 78 -917 218 -142 61 -182 81 -480 243 -137 75
-306 162 -375 193 -320 146 -703 255 -1065 305 -114 15 -537 27 -630 18z"/>
</g>
</svg>
